<?xml version="1.0" encoding="iso-8859-1"?>
<!-- Generator: Adobe Illustrator 19.0.0, SVG Export Plug-In . SVG Version: 6.00 Build 0)  -->
<svg version="1.1" id="Layer_1" xmlns="http://www.w3.org/2000/svg" xmlns:xlink="http://www.w3.org/1999/xlink" x="0px" y="0px"
	 viewBox="0 0 473.677 473.677" style="enable-background:new 0 0 473.677 473.677;" xml:space="preserve">
<path style="fill:#344E5D;" d="M0,236.842C0,106.028,106.036,0.004,236.835,0.004c130.807,0,236.842,106.028,236.842,236.838
	c0,130.795-106.036,236.831-236.842,236.831C106.036,473.673,0,367.638,0,236.842z"/>
<g>
	<path style="fill:#F7F7F7;" d="M248.738,73.393V41.898c0,0,0.239-2.588-1.66-3.328c-1.903-0.74-4.042,0.789-4.042,0.789
		l-93.792,55.136c0,0-2.113,1.271-2.113,3.063c0,2.165,2.113,3.276,2.113,3.276l94.11,55.45c0,0,1.821,1.111,3.65,0
		c1.817-1.107,1.739-2.865,1.739-2.865v-29.393c57.051,5.946,101.537,54.175,101.537,112.815
		c0,62.642-50.791,113.432-113.436,113.432c-62.653,0-113.44-50.791-113.44-113.432c0-17.823,4.121-34.677,11.443-49.68
		c0,0,9.48-21.222-10.153-30.885s-31.267,0.976-33.664,5.621c-11.57,22.46-18.107,47.938-18.107,74.949
		c0,90.528,73.389,163.917,163.92,163.917c90.528,0,163.92-73.389,163.92-163.917C400.763,150.308,333.705,79.496,248.738,73.393z"
		/>
	<circle style="fill:#F7F7F7;" cx="236.85" cy="236.85" r="21.977"/>
</g>
<g>
</g>
<g>
</g>
<g>
</g>
<g>
</g>
<g>
</g>
<g>
</g>
<g>
</g>
<g>
</g>
<g>
</g>
<g>
</g>
<g>
</g>
<g>
</g>
<g>
</g>
<g>
</g>
<g>
</g>
</svg>
