
<svg version="1.0" xmlns="http://www.w3.org/2000/svg"
 width="1280.000000pt" height="1280.000000pt" viewBox="0 0 1280.000000 1280.000000"
 preserveAspectRatio="xMidYMid meet">
<metadata>
Created by potrace 1.15, written by Peter Selinger 2001-2017
</metadata>
<g transform="translate(0.000000,1280.000000) scale(0.100000,-0.100000)"
fill="#000000" stroke="none">
<path d="M12650 12793 c-164 -18 -308 -60 -498 -147 -731 -336 -1483 -817
-2297 -1470 -901 -722 -1272 -1032 -1710 -1431 -785 -714 -2390 -2312 -3386
-3370 -770 -818 -1434 -1579 -1516 -1739 -9 -17 -86 -107 -172 -201 -511 -557
-813 -937 -923 -1162 l-40 -83 -676 0 c-374 0 -695 -5 -717 -10 -34 -8 -74
-43 -285 -257 -250 -252 -389 -409 -417 -469 -16 -32 -15 -34 10 -73 32 -49
287 -368 531 -666 99 -121 184 -226 189 -233 7 -9 3 -20 -12 -35 -11 -13 -21
-30 -21 -38 0 -21 86 -145 200 -288 73 -92 119 -138 211 -211 143 -114 267
-200 288 -200 8 0 25 10 38 21 15 15 26 19 35 12 7 -5 112 -90 233 -189 298
-244 617 -499 666 -531 39 -25 41 -26 73 -10 60 28 217 167 469 417 214 211
249 251 257 285 5 22 10 343 10 718 l0 677 82 39 c218 104 668 461 1193 948
77 72 154 137 171 146 160 83 928 753 1744 1521 1076 1014 2646 2591 3365
3381 400 439 781 895 1454 1738 639 802 1113 1545 1444 2262 100 218 139 361
153 558 l7 97 -59 -2 c-32 0 -75 -3 -94 -5z"/>
</g>
</svg>


