<?xml version="1.0" standalone="no"?>
<!DOCTYPE svg PUBLIC "-//W3C//DTD SVG 20010904//EN"
 "http://www.w3.org/TR/2001/REC-SVG-20010904/DTD/svg10.dtd">
<svg version="1.0" xmlns="http://www.w3.org/2000/svg"
 width="1280.000000pt" height="640.000000pt" viewBox="0 0 1280.000000 640.000000"
 preserveAspectRatio="xMidYMid meet">
<metadata>
Created by potrace 1.15, written by Peter Selinger 2001-2017
</metadata>
<g transform="translate(0.000000,640.000000) scale(0.100000,-0.100000)"
fill="#000000" stroke="none">
<path d="M541 4997 c-7 -9 -12 -102 -13 -273 -3 -245 -4 -259 -21 -256 -12 2
-21 -4 -24 -17 -3 -14 -14 -21 -29 -21 -17 0 -24 -6 -24 -20 0 -13 -7 -20 -20
-20 -11 0 -20 7 -20 15 0 12 -14 15 -69 15 l-68 0 -27 -40 c-32 -49 -114 -105
-178 -121 -43 -12 -48 -16 -48 -41 l0 -28 195 0 c123 0 195 4 195 10 0 6 9 10
20 10 11 0 20 -7 20 -15 0 -11 12 -15 49 -15 48 0 50 -1 53 -32 2 -23 8 -32
26 -34 12 -2 22 1 22 6 0 6 3 10 8 10 4 0 7 -15 7 -32 0 -33 1 -33 53 -36 31
-2 52 1 52 7 0 8 236 11 765 11 503 0 765 -3 765 -10 0 -5 23 -10 50 -10 28 0
50 5 50 10 0 7 185 10 535 10 l535 0 0 -29 c0 -28 3 -30 48 -36 26 -3 55 -10
64 -15 18 -10 258 -20 1053 -45 270 -9 506 -19 525 -24 19 -5 96 -25 170 -46
101 -29 155 -38 215 -39 74 -1 81 1 90 22 8 19 17 22 67 22 46 0 60 4 71 20
14 21 15 21 357 6 188 -8 344 -17 347 -20 14 -14 -42 -262 -99 -436 -164 -502
-495 -939 -980 -1292 l-96 -71 25 -41 c186 -295 408 -644 418 -654 9 -10 33 1
121 59 513 338 887 754 1147 1274 121 241 213 510 265 767 l27 138 48 0 47 0
0 40 c0 36 3 40 25 40 l25 0 0 -130 c0 -127 1 -131 23 -139 18 -7 27 -26 46
-99 18 -69 27 -89 38 -85 10 4 13 15 8 42 -8 54 -9 116 -1 129 4 7 29 12 55
12 44 0 49 -3 78 -44 21 -29 49 -52 84 -69 53 -26 57 -27 296 -28 237 -1 243
0 285 23 23 13 61 47 83 77 l40 53 45 -49 c61 -66 87 -119 233 -463 150 -354
153 -364 162 -463 9 -91 25 -118 90 -142 36 -14 66 -17 162 -12 141 6 210 25
264 74 91 83 94 138 14 353 -93 252 -173 482 -190 546 -25 95 -22 173 9 227
22 37 27 58 27 109 0 35 2 82 5 104 l6 42 61 -5 c43 -4 198 -52 502 -155 242
-82 557 -189 700 -238 826 -280 1858 -636 1968 -679 16 -6 41 -11 56 -11 15 0
32 -5 38 -11 17 -17 60 14 67 48 3 15 13 91 21 168 19 167 95 739 127 951 21
146 22 152 4 178 -9 15 -23 25 -31 23 -7 -3 -31 1 -52 8 -98 34 -774 124
-1626 216 -234 25 -281 21 -432 -37 -138 -53 -190 -52 -540 14 -326 62 -620
112 -657 112 -16 0 -28 5 -28 10 0 6 -12 10 -27 10 -21 0 -40 14 -76 54 -26
30 -47 57 -47 60 0 2 9 6 21 8 20 3 19 5 -10 46 -26 35 -37 42 -65 42 -29 0
-42 9 -96 71 -35 38 -77 78 -94 87 -29 16 -142 17 -1538 20 l-1508 2 0 49 c0
42 -3 50 -22 55 l-23 7 23 16 c12 8 22 23 22 32 0 14 7 17 30 13 28 -4 30 -2
30 27 0 29 -2 31 -20 21 -11 -6 -20 -14 -20 -18 0 -4 -134 -9 -298 -10 -263
-3 -300 -2 -311 12 -17 20 -45 21 -61 1 -10 -12 -36 -15 -114 -15 -66 0 -106
-4 -114 -12 -7 -7 -12 -36 -12 -65 l0 -53 -38 0 c-29 0 -39 5 -47 23 -7 14
-20 23 -40 25 -16 1 -39 7 -50 13 -14 7 -222 3 -648 -11 -346 -11 -655 -20
-687 -20 -39 0 -64 -5 -74 -15 -8 -8 -27 -15 -41 -15 -18 0 -29 -6 -32 -20 -5
-18 -14 -20 -109 -20 -86 0 -104 -3 -104 -15 0 -13 -58 -15 -464 -15 l-465 0
-37 -62 c-104 -175 -201 -253 -346 -279 -44 -8 -68 -17 -68 -26 0 -11 -80 -13
-435 -13 -425 0 -435 0 -435 20 0 10 -45 112 -100 226 -99 204 -100 208 -100
280 0 62 -3 75 -19 84 -30 15 -196 13 -210 -3z m5329 -59 c0 -9 7 -21 16 -26
26 -15 7 -32 -36 -32 -95 0 -295 42 -322 68 -4 4 71 7 167 7 158 0 175 -2 175
-17z m-3002 -234 c-19 -19 -38 -11 -38 16 0 24 21 31 40 14 12 -12 12 -16 -2
-30z m120 22 c6 -29 -15 -43 -35 -24 -14 14 -14 20 -3 33 16 19 34 15 38 -9z
m122 -6 c0 -23 -13 -32 -34 -24 -19 7 -21 40 -3 47 20 7 37 -4 37 -23z m-2341
-63 c42 -15 70 -50 78 -100 10 -61 -2 -67 -136 -67 -78 0 -121 4 -129 12 -7 7
-12 39 -12 72 0 83 14 96 99 95 36 0 81 -5 100 -12z m3341 -97 c6 -25 6 -25
136 -28 l129 -3 12 31 11 30 199 0 c206 0 223 -3 223 -42 0 -11 7 -18 20 -18
13 0 20 -7 20 -20 0 -12 -7 -20 -18 -20 -9 0 -22 -10 -27 -22 -10 -23 -13 -23
-213 -26 l-202 -2 -12 25 c-11 25 -12 25 -144 25 -130 0 -133 0 -136 -22 -3
-23 -3 -23 -208 -23 -203 0 -205 0 -215 23 -8 19 -17 22 -67 22 -51 0 -58 2
-58 20 0 18 7 20 60 20 51 0 60 3 60 18 0 40 16 43 224 40 l200 -3 6 -25z
m-840 -37 c143 -5 156 -8 156 -24 0 -17 -9 -19 -73 -19 l-73 0 0 -45 0 -45
-455 0 -455 0 0 70 0 70 373 0 c204 0 442 -3 527 -7z m-1430 -333 c0 -19 7
-20 165 -20 103 0 165 -4 165 -10 0 -5 14 -10 30 -10 17 0 30 -3 30 -7 0 -5
-331 -7 -735 -5 -726 2 -735 3 -735 22 0 19 7 20 105 20 87 0 105 3 105 15 0
13 55 15 435 15 428 0 435 0 435 -20z m1440 0 c0 -18 7 -20 60 -20 46 0 60 -3
60 -15 0 -13 -70 -15 -535 -17 -294 -2 -535 0 -535 5 0 4 9 7 20 7 16 0 20 7
20 30 l0 30 455 0 c448 0 455 0 455 -20z m4695 -366 c5 -7 32 -14 60 -16 43
-3 51 -7 66 -33 28 -47 43 -117 35 -159 -10 -52 -94 -137 -153 -154 -53 -16
-58 -37 -8 -29 101 17 183 89 223 198 26 70 30 75 86 106 32 18 60 33 62 33 2
0 4 -31 4 -70 0 -56 3 -70 15 -70 8 0 15 -4 15 -9 0 -5 -7 -14 -15 -21 -19
-15 -19 -57 -1 -90 13 -22 11 -28 -16 -67 -16 -24 -47 -55 -68 -69 l-38 -25
-243 3 c-234 3 -245 4 -281 26 -73 45 -78 65 -78 282 l0 192 162 -7 c117 -5
166 -11 173 -21z"/>
</g>
</svg>
