<?xml version="1.0" standalone="no"?>
<!DOCTYPE svg PUBLIC "-//W3C//DTD SVG 20010904//EN"
 "http://www.w3.org/TR/2001/REC-SVG-20010904/DTD/svg10.dtd">
<svg version="1.0" xmlns="http://www.w3.org/2000/svg"
 width="1280.000000pt" height="1280.000000pt" viewBox="0 0 1280.000000 1280.000000"
 preserveAspectRatio="xMidYMid meet">
<metadata>
Created by potrace 1.15, written by Peter Selinger 2001-2017
</metadata>
<g transform="translate(0.000000,1280.000000) scale(0.100000,-0.100000)"
fill="#000000" stroke="none">
<path d="M1540 12210 c0 -380 3 -580 10 -580 7 0 10 200 10 580 0 380 -3 580
-10 580 -7 0 -10 -200 -10 -580z"/>
<path d="M11240 12210 c0 -380 3 -580 10 -580 7 0 10 200 10 580 0 380 -3 580
-10 580 -7 0 -10 -200 -10 -580z"/>
<path d="M10 11250 c0 -7 200 -10 580 -10 380 0 580 3 580 10 0 7 -200 10
-580 10 -380 0 -580 -3 -580 -10z"/>
<path d="M11630 11250 c0 -7 200 -10 580 -10 380 0 580 3 580 10 0 7 -200 10
-580 10 -380 0 -580 -3 -580 -10z"/>
<path d="M7278 9955 c-15 -77 -83 -438 -152 -802 -500 -2633 -546 -2876 -549
-2880 -3 -2 -139 371 -402 1104 -56 156 -104 285 -106 288 -3 2 -22 -345 -43
-773 -21 -427 -40 -779 -41 -780 -2 -2 -9 7 -15 20 -60 117 -2064 3857 -2067
3855 -2 -3 692 -4416 701 -4449 2 -10 1 -18 -2 -17 -4 0 -284 297 -622 660
-338 362 -659 705 -712 761 l-97 103 140 -370 c76 -203 309 -820 518 -1370
208 -550 377 -1001 376 -1003 -3 -3 -1291 905 -1395 982 -12 9 -12 7 1 -14 9
-14 385 -599 837 -1300 l821 -1275 278 31 278 31 -3 24 c-1 13 -81 399 -178
858 -96 458 -174 835 -172 836 2 2 190 -170 418 -382 232 -215 416 -379 419
-372 3 11 -7 372 -29 1034 -5 149 -12 385 -15 525 -3 140 -8 266 -11 280 -4
17 -2 22 5 15 6 -6 193 -332 415 -724 223 -393 407 -708 410 -700 2 8 31 212
65 454 34 242 64 451 68 465 5 24 6 23 19 -14 88 -249 238 -635 243 -627 4 6
79 240 166 520 154 490 160 508 167 463 5 -26 24 -297 43 -602 37 -579 54
-822 58 -827 2 -1 257 213 567 476 311 263 566 477 568 476 1 -1 -25 -87 -57
-191 -33 -104 -130 -414 -216 -689 -222 -707 -233 -745 -227 -745 3 0 134 42
291 94 356 118 471 155 471 151 0 -1 -97 -107 -215 -236 -118 -129 -211 -235
-207 -236 4 -1 185 -25 402 -53 217 -27 512 -65 655 -84 143 -18 261 -33 262
-32 2 1 -130 109 -292 240 -163 131 -298 242 -301 247 -3 5 195 230 440 501
244 271 443 494 441 496 -2 2 -277 -114 -611 -257 -334 -143 -609 -260 -610
-258 -1 1 52 146 118 322 266 714 698 1871 843 2260 301 808 500 1341 530
1419 19 49 33 91 31 93 -2 2 -455 -518 -1007 -1156 -552 -639 -1005 -1157
-1007 -1152 -1 4 25 278 58 607 34 329 64 628 67 664 l5 65 -119 -180 c-65
-99 -222 -339 -348 -532 -127 -194 -233 -353 -237 -353 -5 0 -8 57 -8 128 0
70 -5 298 -10 507 -5 209 -14 583 -20 830 -6 248 -15 630 -20 850 -5 220 -14
614 -21 875 -6 261 -14 585 -17 720 l-7 245 -27 -140z"/>
<path d="M10 1550 c0 -7 200 -10 580 -10 380 0 580 3 580 10 0 7 -200 10 -580
10 -380 0 -580 -3 -580 -10z"/>
<path d="M11630 1550 c0 -7 200 -10 580 -10 380 0 580 3 580 10 0 7 -200 10
-580 10 -380 0 -580 -3 -580 -10z"/>
<path d="M1540 590 c0 -380 3 -580 10 -580 7 0 10 200 10 580 0 380 -3 580
-10 580 -7 0 -10 -200 -10 -580z"/>
<path d="M11240 590 c0 -380 3 -580 10 -580 7 0 10 200 10 580 0 380 -3 580
-10 580 -7 0 -10 -200 -10 -580z"/>
</g>
</svg>
