<?xml version="1.0" encoding="utf-8"?>
<svg xmlns="http://www.w3.org/2000/svg" xmlns:xlink="http://www.w3.org/1999/xlink" style="margin: auto; background: rgb(214, 214, 214); display: block; shape-rendering: auto;" width="221px" height="221px" viewBox="0 0 100 100" preserveAspectRatio="xMidYMid">
<g transform="translate(50 50)">
<g>
<animateTransform attributeName="transform" type="rotate" values="0;45" keyTimes="0;1" dur="0.2s" repeatCount="indefinite"></animateTransform><path d="M29.393876913398135 -6 L37.39387691339813 -6 L37.39387691339813 6 L29.393876913398135 6 A30 30 0 0 1 25.027250377945812 16.54196900370724 L25.027250377945812 16.54196900370724 L30.68410462743819 22.19882325319962 L22.198823253199624 30.68410462743819 L16.541969003707244 25.027250377945812 A30 30 0 0 1 6.000000000000004 29.393876913398135 L6.000000000000004 29.393876913398135 L6.000000000000005 37.39387691339813 L-6 37.39387691339813 L-6.000000000000001 29.393876913398135 A30 30 0 0 1 -16.541969003707237 25.027250377945816 L-16.541969003707237 25.027250377945816 L-22.198823253199617 30.684104627438195 L-30.68410462743819 22.19882325319962 L-25.027250377945812 16.54196900370724 A30 30 0 0 1 -29.393876913398135 6.000000000000006 L-29.393876913398135 6.000000000000006 L-37.39387691339813 6.000000000000007 L-37.39387691339813 -5.999999999999997 L-29.393876913398135 -5.999999999999998 A30 30 0 0 1 -25.02725037794582 -16.541969003707237 L-25.02725037794582 -16.541969003707237 L-30.684104627438202 -22.198823253199617 L-22.198823253199627 -30.68410462743819 L-16.541969003707244 -25.027250377945812 A30 30 0 0 1 -6.000000000000008 -29.393876913398135 L-6.000000000000008 -29.393876913398135 L-6.00000000000001 -37.39387691339813 L5.999999999999996 -37.39387691339814 L5.999999999999997 -29.393876913398138 A30 30 0 0 1 16.541969003707234 -25.02725037794582 L16.541969003707234 -25.02725037794582 L22.198823253199613 -30.684104627438202 L30.68410462743819 -22.198823253199627 L25.027250377945812 -16.541969003707244 A30 30 0 0 1 29.393876913398135 -6.00000000000001 M0 -24A24 24 0 1 0 0 24 A24 24 0 1 0 0 -24" fill="#bababa"></path></g></g>
<!-- [ldio] generated by https://loading.io/ --></svg>