<?xml version="1.0" encoding="utf-8"?>
<svg xmlns="http://www.w3.org/2000/svg" xmlns:xlink="http://www.w3.org/1999/xlink" style="margin: auto; background: rgb(214, 214, 214); display: block; shape-rendering: auto;" width="254px" height="254px" viewBox="0 0 100 100" preserveAspectRatio="xMidYMid">
<g transform="translate(50 50)">
<g>
<animateTransform attributeName="transform" type="rotate" values="0;45" keyTimes="0;1" dur="0.5681818181818182s" repeatCount="indefinite"></animateTransform><path d="M29.491524206117255 -5.5 L36.491524206117255 -5.5 L36.491524206117255 5.5 L29.491524206117255 5.5 A30 30 0 0 1 24.742744050198738 16.964569457146712 L24.742744050198738 16.964569457146712 L29.69249151850457 21.914316925452546 L21.91431692545255 29.692491518504568 L16.964569457146716 24.742744050198734 A30 30 0 0 1 5.5 29.491524206117255 L5.5 29.491524206117255 L5.5 36.491524206117255 L-5.499999999999997 36.491524206117255 L-5.499999999999997 29.491524206117255 A30 30 0 0 1 -16.964569457146705 24.742744050198738 L-16.964569457146705 24.742744050198738 L-21.91431692545254 29.69249151850457 L-29.69249151850457 21.914316925452546 L-24.742744050198738 16.964569457146712 A30 30 0 0 1 -29.491524206117255 5.500000000000009 L-29.491524206117255 5.500000000000009 L-36.491524206117255 5.50000000000001 L-36.491524206117255 -5.500000000000001 L-29.491524206117255 -5.500000000000002 A30 30 0 0 1 -24.742744050198738 -16.964569457146705 L-24.742744050198738 -16.964569457146705 L-29.69249151850457 -21.91431692545254 L-21.914316925452546 -29.69249151850457 L-16.964569457146712 -24.742744050198738 A30 30 0 0 1 -5.500000000000011 -29.491524206117255 L-5.500000000000011 -29.491524206117255 L-5.5000000000000115 -36.491524206117255 L5.499999999999999 -36.491524206117255 L5.5 -29.491524206117255 A30 30 0 0 1 16.964569457146702 -24.74274405019874 L16.964569457146702 -24.74274405019874 L21.914316925452532 -29.692491518504575 L29.692491518504568 -21.91431692545255 L24.742744050198738 -16.964569457146716 A30 30 0 0 1 29.491524206117255 -5.500000000000013 M0 -23A23 23 0 1 0 0 23 A23 23 0 1 0 0 -23" fill="#999494"></path></g></g>
<!-- [ldio] generated by https://loading.io/ --></svg>